<svg width="409" height="56" viewBox="0 0 409 56" fill="none" xmlns="http://www.w3.org/2000/svg">
<path d="M28.7617 41.5C28.7617 40.6328 28.6328 39.8594 28.375 39.1797C28.1172 38.4766 27.6484 37.832 26.9688 37.2461C26.2891 36.6602 25.3281 36.0742 24.0859 35.4883C22.8438 34.8789 21.2148 34.2578 19.1992 33.625C16.9023 32.875 14.7109 32.0312 12.625 31.0938C10.5625 30.1328 8.72266 29.0195 7.10547 27.7539C5.48828 26.4883 4.21094 25.0117 3.27344 23.3242C2.35938 21.6367 1.90234 19.668 1.90234 17.418C1.90234 15.2383 2.38281 13.2695 3.34375 11.5117C4.30469 9.75391 5.65234 8.25391 7.38672 7.01172C9.12109 5.74609 11.1602 4.78516 13.5039 4.12891C15.8477 3.44922 18.4258 3.10938 21.2383 3.10938C24.9883 3.10938 28.2812 3.77734 31.1172 5.11328C33.9766 6.42578 36.2031 8.27734 37.7969 10.668C39.3906 13.0352 40.1875 15.7891 40.1875 18.9297H28.7969C28.7969 17.5469 28.5039 16.3281 27.918 15.2734C27.3555 14.1953 26.4883 13.3516 25.3164 12.7422C24.168 12.1328 22.7266 11.8281 20.9922 11.8281C19.3047 11.8281 17.8867 12.0859 16.7383 12.6016C15.6133 13.0938 14.7578 13.7734 14.1719 14.6406C13.6094 15.5078 13.3281 16.457 13.3281 17.4883C13.3281 18.3086 13.5391 19.0586 13.9609 19.7383C14.4062 20.3945 15.0391 21.0156 15.8594 21.6016C16.7031 22.1641 17.7344 22.7031 18.9531 23.2188C20.1719 23.7344 21.5664 24.2266 23.1367 24.6953C25.8789 25.5625 28.3047 26.5234 30.4141 27.5781C32.5469 28.6328 34.3398 29.8281 35.793 31.1641C37.2461 32.5 38.3359 34.0117 39.0625 35.6992C39.8125 37.3867 40.1875 39.2969 40.1875 41.4297C40.1875 43.7031 39.7422 45.7188 38.8516 47.4766C37.9844 49.2344 36.7188 50.7344 35.0547 51.9766C33.4141 53.1953 31.4453 54.1211 29.1484 54.7539C26.8516 55.3867 24.2852 55.7031 21.4492 55.7031C18.8711 55.7031 16.3281 55.375 13.8203 54.7188C11.3125 54.0391 9.03906 53.0078 7 51.625C4.98438 50.2422 3.36719 48.4844 2.14844 46.3516C0.953125 44.1953 0.355469 41.6406 0.355469 38.6875H11.8164C11.8164 40.2344 12.0391 41.5469 12.4844 42.625C12.9297 43.6797 13.5625 44.5352 14.3828 45.1914C15.2266 45.8477 16.2461 46.3164 17.4414 46.5977C18.6367 46.8789 19.9727 47.0195 21.4492 47.0195C23.1602 47.0195 24.543 46.7852 25.5977 46.3164C26.6758 45.8242 27.4727 45.1562 27.9883 44.3125C28.5039 43.4688 28.7617 42.5312 28.7617 41.5ZM57.4141 0.964844V55H46.4102V0.964844H57.4141ZM81.5664 16.9609L65.0078 36.0859L56.2539 44.875L51.8594 37.457L58.9609 28.2812L68.3477 16.9609H81.5664ZM69.9648 55L59.2422 37.5273L67.1172 31.375L82.5508 55H69.9648ZM96.8945 16.9609V55H85.8906V16.9609H96.8945ZM85.2227 7.11719C85.2227 5.52344 85.7852 4.22266 86.9102 3.21484C88.0352 2.18359 89.5117 1.66797 91.3398 1.66797C93.168 1.66797 94.6445 2.18359 95.7695 3.21484C96.918 4.22266 97.4922 5.52344 97.4922 7.11719C97.4922 8.6875 96.918 9.98828 95.7695 11.0195C94.6445 12.0273 93.168 12.5312 91.3398 12.5312C89.5117 12.5312 88.0352 12.0273 86.9102 11.0195C85.7852 9.98828 85.2227 8.6875 85.2227 7.11719ZM116.371 1V55H105.367V1H116.371ZM135.848 1V55H124.844V1H135.848Z" fill="#3BBF7A"/>
<path d="M173.746 37.8438H185.137C184.949 41.3594 183.988 44.4648 182.254 47.1602C180.543 49.832 178.164 51.9297 175.117 53.4531C172.07 54.9531 168.449 55.7031 164.254 55.7031C160.902 55.7031 157.902 55.1289 155.254 53.9805C152.605 52.832 150.355 51.1914 148.504 49.0586C146.676 46.9023 145.27 44.3125 144.285 41.2891C143.324 38.2422 142.844 34.8086 142.844 30.9883V27.8594C142.844 24.0391 143.348 20.6055 144.355 17.5586C145.363 14.5117 146.805 11.9102 148.68 9.75391C150.555 7.59766 152.805 5.94531 155.43 4.79688C158.055 3.64844 160.984 3.07422 164.219 3.07422C168.578 3.07422 172.258 3.85937 175.258 5.42969C178.258 7 180.578 9.15625 182.219 11.8984C183.883 14.6406 184.879 17.7695 185.207 21.2852H173.781C173.688 19.293 173.312 17.6172 172.656 16.2578C172 14.875 170.992 13.832 169.633 13.1289C168.273 12.4258 166.469 12.0742 164.219 12.0742C162.578 12.0742 161.137 12.3789 159.895 12.9883C158.676 13.5977 157.656 14.5469 156.836 15.8359C156.039 17.125 155.441 18.7656 155.043 20.7578C154.645 22.7266 154.445 25.0703 154.445 27.7891V30.9883C154.445 33.6836 154.621 36.0156 154.973 37.9844C155.324 39.9531 155.887 41.582 156.66 42.8711C157.457 44.1602 158.477 45.1211 159.719 45.7539C160.961 46.3867 162.473 46.7031 164.254 46.7031C166.293 46.7031 167.992 46.3867 169.352 45.7539C170.711 45.0977 171.754 44.1133 172.48 42.8008C173.207 41.4883 173.629 39.8359 173.746 37.8438ZM189.355 36.3672V35.6289C189.355 32.8398 189.754 30.2734 190.551 27.9297C191.348 25.5625 192.52 23.5117 194.066 21.7773C195.613 20.043 197.512 18.6953 199.762 17.7344C202.012 16.75 204.59 16.2578 207.496 16.2578C210.449 16.2578 213.051 16.75 215.301 17.7344C217.574 18.6953 219.484 20.043 221.031 21.7773C222.578 23.5117 223.75 25.5625 224.547 27.9297C225.344 30.2734 225.742 32.8398 225.742 35.6289V36.3672C225.742 39.1328 225.344 41.6992 224.547 44.0664C223.75 46.4102 222.578 48.4609 221.031 50.2188C219.484 51.9531 217.586 53.3008 215.336 54.2617C213.086 55.2227 210.496 55.7031 207.566 55.7031C204.66 55.7031 202.07 55.2227 199.797 54.2617C197.523 53.3008 195.613 51.9531 194.066 50.2188C192.52 48.4609 191.348 46.4102 190.551 44.0664C189.754 41.6992 189.355 39.1328 189.355 36.3672ZM200.359 35.6289V36.3672C200.359 37.8672 200.477 39.2734 200.711 40.5859C200.969 41.8984 201.379 43.0469 201.941 44.0312C202.504 45.0156 203.242 45.7891 204.156 46.3516C205.094 46.8906 206.23 47.1602 207.566 47.1602C208.902 47.1602 210.027 46.8906 210.941 46.3516C211.855 45.7891 212.594 45.0156 213.156 44.0312C213.719 43.0469 214.117 41.8984 214.352 40.5859C214.609 39.2734 214.738 37.8672 214.738 36.3672V35.6289C214.738 34.1523 214.609 32.7695 214.352 31.4805C214.117 30.168 213.719 29.0078 213.156 28C212.594 26.9922 211.844 26.207 210.906 25.6445C209.992 25.082 208.855 24.8008 207.496 24.8008C206.184 24.8008 205.07 25.082 204.156 25.6445C203.242 26.207 202.504 26.9922 201.941 28C201.379 29.0078 200.969 30.168 200.711 31.4805C200.477 32.7695 200.359 34.1523 200.359 35.6289ZM242.266 25.082V55H231.262V16.9609H241.598L242.266 25.082ZM240.824 34.6445L238.082 34.7148C238.082 31.8555 238.434 29.2891 239.137 27.0156C239.84 24.7422 240.836 22.8086 242.125 21.2148C243.438 19.5977 244.996 18.3672 246.801 17.5234C248.629 16.6797 250.645 16.2578 252.848 16.2578C254.629 16.2578 256.258 16.5156 257.734 17.0312C259.211 17.5469 260.477 18.3789 261.531 19.5273C262.609 20.6523 263.43 22.1523 263.992 24.0273C264.555 25.8789 264.836 28.1641 264.836 30.8828V55H253.797V30.8477C253.797 29.2539 253.574 28.0234 253.129 27.1562C252.684 26.2891 252.027 25.6797 251.16 25.3281C250.316 24.9766 249.285 24.8008 248.066 24.8008C246.777 24.8008 245.676 25.0586 244.762 25.5742C243.848 26.0664 243.098 26.7578 242.512 27.6484C241.926 28.5391 241.492 29.582 241.211 30.7773C240.953 31.9727 240.824 33.2617 240.824 34.6445ZM282.766 25.082V55H271.762V16.9609H282.098L282.766 25.082ZM281.324 34.6445L278.582 34.7148C278.582 31.8555 278.934 29.2891 279.637 27.0156C280.34 24.7422 281.336 22.8086 282.625 21.2148C283.938 19.5977 285.496 18.3672 287.301 17.5234C289.129 16.6797 291.145 16.2578 293.348 16.2578C295.129 16.2578 296.758 16.5156 298.234 17.0312C299.711 17.5469 300.977 18.3789 302.031 19.5273C303.109 20.6523 303.93 22.1523 304.492 24.0273C305.055 25.8789 305.336 28.1641 305.336 30.8828V55H294.297V30.8477C294.297 29.2539 294.074 28.0234 293.629 27.1562C293.184 26.2891 292.527 25.6797 291.66 25.3281C290.816 24.9766 289.785 24.8008 288.566 24.8008C287.277 24.8008 286.176 25.0586 285.262 25.5742C284.348 26.0664 283.598 26.7578 283.012 27.6484C282.426 28.5391 281.992 29.582 281.711 30.7773C281.453 31.9727 281.324 33.2617 281.324 34.6445ZM330.438 55.7031C327.414 55.7031 324.707 55.2227 322.316 54.2617C319.926 53.3008 317.898 51.9766 316.234 50.2891C314.594 48.5781 313.34 46.6094 312.473 44.3828C311.605 42.1562 311.172 39.7773 311.172 37.2461V35.9102C311.172 33.0742 311.57 30.4609 312.367 28.0703C313.164 25.6797 314.324 23.6055 315.848 21.8477C317.395 20.0664 319.293 18.6953 321.543 17.7344C323.793 16.75 326.359 16.2578 329.242 16.2578C331.938 16.2578 334.34 16.7031 336.449 17.5938C338.559 18.4609 340.34 19.7148 341.793 21.3555C343.246 22.9727 344.348 24.9297 345.098 27.2266C345.871 29.5 346.258 32.0547 346.258 34.8906V39.3906H315.602V32.3242H335.5V31.4805C335.5 30.1445 335.254 28.9727 334.762 27.9648C334.293 26.957 333.59 26.1836 332.652 25.6445C331.738 25.082 330.578 24.8008 329.172 24.8008C327.836 24.8008 326.723 25.082 325.832 25.6445C324.941 26.207 324.227 27.0039 323.688 28.0352C323.172 29.043 322.797 30.2266 322.562 31.5859C322.328 32.9219 322.211 34.3633 322.211 35.9102V37.2461C322.211 38.7227 322.41 40.0703 322.809 41.2891C323.207 42.5078 323.793 43.5508 324.566 44.418C325.34 45.2852 326.277 45.9648 327.379 46.457C328.48 46.9492 329.734 47.1953 331.141 47.1953C332.875 47.1953 334.527 46.8672 336.098 46.2109C337.668 45.5312 339.027 44.4766 340.176 43.0469L345.309 48.918C344.535 50.043 343.445 51.1328 342.039 52.1875C340.656 53.2188 338.992 54.0625 337.047 54.7188C335.102 55.375 332.898 55.7031 330.438 55.7031ZM367.492 47.1602C368.664 47.1602 369.684 46.9375 370.551 46.4922C371.418 46.0469 372.086 45.4258 372.555 44.6289C373.047 43.8086 373.293 42.8242 373.293 41.6758H383.629C383.629 44.4414 382.914 46.8789 381.484 48.9883C380.078 51.0977 378.18 52.75 375.789 53.9453C373.398 55.1172 370.703 55.7031 367.703 55.7031C364.75 55.7031 362.172 55.2227 359.969 54.2617C357.766 53.2773 355.926 51.9062 354.449 50.1484C352.973 48.3906 351.859 46.3516 351.109 44.0312C350.383 41.6875 350.02 39.1562 350.02 36.4375V35.5234C350.02 32.8281 350.383 30.3086 351.109 27.9648C351.859 25.6211 352.973 23.5703 354.449 21.8125C355.926 20.0547 357.754 18.6953 359.934 17.7344C362.137 16.75 364.715 16.2578 367.668 16.2578C370.785 16.2578 373.539 16.8555 375.93 18.0508C378.344 19.2461 380.23 20.9688 381.59 23.2188C382.949 25.4453 383.629 28.1289 383.629 31.2695H373.293C373.293 30.0508 373.07 28.9609 372.625 28C372.203 27.0156 371.547 26.2422 370.656 25.6797C369.789 25.0938 368.711 24.8008 367.422 24.8008C366.086 24.8008 364.984 25.0938 364.117 25.6797C363.273 26.2422 362.629 27.0273 362.184 28.0352C361.738 29.043 361.434 30.1914 361.27 31.4805C361.105 32.7461 361.023 34.0938 361.023 35.5234V36.4375C361.023 37.8906 361.105 39.2734 361.27 40.5859C361.434 41.875 361.738 43.0117 362.184 43.9961C362.652 44.9805 363.309 45.7539 364.152 46.3164C364.996 46.8789 366.109 47.1602 367.492 47.1602ZM408.414 16.9609V24.6602H385.844V16.9609H408.414ZM391.012 7.53906H402.016V43.082C402.016 44.1367 402.145 44.9453 402.402 45.5078C402.66 46.0703 403.082 46.4688 403.668 46.7031C404.254 46.9141 405.004 47.0195 405.918 47.0195C406.574 47.0195 407.137 46.9961 407.605 46.9492C408.074 46.9023 408.508 46.8438 408.906 46.7734V54.7188C407.969 55.0234 406.973 55.2578 405.918 55.4219C404.863 55.6094 403.715 55.7031 402.473 55.7031C400.105 55.7031 398.055 55.3164 396.32 54.543C394.609 53.7695 393.297 52.5508 392.383 50.8867C391.469 49.1992 391.012 47.0078 391.012 44.3125V7.53906Z" fill="#272A2F"/>
</svg>
